# xmcd CD database file generated by LOLA_Freedb v0.9beta0
# 
# Track frame offsets:
#      150
#      14715
#      31701
#      47138
#      59750
#      74050
#      86587
#      100520
#      114192
#      130402
# 
# Disc length: 1888 seconds
# 
# Revision: 0 
# Processed by: cddbd v1.5.1PL2 Copyright (c) Steve Scherf et al.
# Submitted via: LOLA_Freedb v0.9beta0
# 
DISCID=88075e0a
DTITLE=Dolly Parton - The best of
DYEAR=1981
DGENRE=
TTITLE0=Dolly Parton - Mule skinner blues
TTITLE1=Dolly Parton - Down from Dover
TTITLE2=Dolly Parton - My blue ridge mountain boy
TTITLE3=Dolly Parton - In the good old days
TTITLE4=Dolly Parton - Gypsy, Joe and me
TTITLE5=Dolly Parton - In the Ghetto
TTITLE6=Dolly Parton - Just because I'm a woman
TTITLE7=Dolly Parton - Daddy come and get me
TTITLE8=Dolly Parton - How great thou art
TTITLE9=Dolly Parton - Just the way I am
EXTD=
EXTT0=
EXTT1=
EXTT2=
EXTT3=
EXTT4=
EXTT5=
EXTT6=
EXTT7=
EXTT8=
EXTT9=
PLAYORDER=
